<?xml version="1.0" standalone="no"?><!DOCTYPE svg PUBLIC "-//W3C//DTD SVG 1.1//EN" "http://www.w3.org/Graphics/SVG/1.1/DTD/svg11.dtd"><svg t="1598258638222" class="icon" viewBox="0 0 1024 1024" version="1.1" xmlns="http://www.w3.org/2000/svg" p-id="1391" xmlns:xlink="http://www.w3.org/1999/xlink" width="200" height="200"><defs><style type="text/css"></style></defs><path d="M505.4464 893.5424H254.976c-53.8624 0-97.6896-43.8272-97.6896-97.6896V212.992c0-53.8624 43.8272-97.6896 97.6896-97.6896h389.3248l209.3056 209.5104v179.6096c0 11.264-9.216 20.48-20.48 20.48s-20.48-9.216-20.48-20.48v-162.6112l-185.344-185.5488H254.976a56.7296 56.7296 0 0 0-56.7296 56.7296v582.8608a56.7296 56.7296 0 0 0 56.7296 56.7296h250.4704c11.264 0 20.48 9.216 20.48 20.48s-9.216 20.48-20.48 20.48z" p-id="1392"></path><path d="M833.1264 350.8224h-215.04V135.7824c0-11.264 9.216-20.48 20.48-20.48s20.48 9.216 20.48 20.48v174.08h174.08c11.264 0 20.48 9.216 20.48 20.48s-9.216 20.48-20.48 20.48zM515.6864 344.8832h-245.76c-11.264 0-20.48-9.216-20.48-20.48s9.216-20.48 20.48-20.48h245.76c11.264 0 20.48 9.216 20.48 20.48s-9.216 20.48-20.48 20.48zM740.9664 467.7632h-471.04c-11.264 0-20.48-9.216-20.48-20.48s9.216-20.48 20.48-20.48h471.04c11.264 0 20.48 9.216 20.48 20.48s-9.216 20.48-20.48 20.48zM536.1664 590.6432h-266.24c-11.264 0-20.48-9.216-20.48-20.48s9.216-20.48 20.48-20.48h266.24c11.264 0 20.48 9.216 20.48 20.48s-9.216 20.48-20.48 20.48z" p-id="1393"></path><path d="M687.104 893.5424c-91.7504 0-166.5024-74.5472-166.5024-166.5024a166.5024 166.5024 0 0 1 333.0048 0c0 91.9552-74.752 166.5024-166.5024 166.5024z m0-291.84c-69.2224 0-125.5424 56.32-125.5424 125.5424s56.32 125.5424 125.5424 125.5424 125.5424-56.32 125.5424-125.5424-56.32-125.5424-125.5424-125.5424z" p-id="1394"></path><path d="M687.104 782.336c-11.264 0-20.48-9.216-20.48-20.48v-104.2432c0-11.264 9.216-20.48 20.48-20.48s20.48 9.216 20.48 20.48v104.2432c0 11.264-9.0112 20.48-20.48 20.48z" p-id="1395"></path><path d="M687.104 809.984m-20.48 0a20.48 20.48 0 1 0 40.96 0 20.48 20.48 0 1 0-40.96 0Z" p-id="1396"></path></svg>