<?xml version="1.0" standalone="no"?><!DOCTYPE svg PUBLIC "-//W3C//DTD SVG 1.1//EN" "http://www.w3.org/Graphics/SVG/1.1/DTD/svg11.dtd"><svg t="1598256296509" class="icon" viewBox="0 0 1024 1024" version="1.1" xmlns="http://www.w3.org/2000/svg" p-id="5061" xmlns:xlink="http://www.w3.org/1999/xlink" width="200" height="200"><defs><style type="text/css"></style></defs><path d="M769.322667 42.666667h68.693333c36.565333 0 79.317333 39.936 79.317333 78.208v782.165333c0 38.144-43.221333 78.208-79.274666 78.208H185.941333c-36.608 0-79.274667-39.893333-79.274666-78.208V120.874667C106.666667 82.602667 149.461333 42.666667 185.941333 42.666667H308.906667c16.469333 0 38.144 7.04 51.370666 16.64l24.021334 17.536c5.973333 4.352 18.688 8.490667 26.24 8.490666h220.202666c7.424 0 20.309333-4.181333 26.24-8.490666l24.021334-17.493334c13.226667-9.685333 34.56-16.682667 50.944-16.682666h37.376zM266.410667 85.333333H185.941333c-13.568 0-36.608 21.504-36.608 35.541334v782.165333c0 14.08 22.954667 35.541333 36.608 35.541333h652.117334c13.226667 0 36.608-21.717333 36.608-35.541333V120.874667c0-14.037333-23.04-35.541333-36.608-35.541334h-106.112c-7.338667 0-19.84 4.096-25.813334 8.490667l-24.021333 17.493333c-13.226667 9.642667-34.944 16.682667-51.370667 16.682667H410.538667c-16.64 0-38.101333-6.997333-51.370667-16.64l-24.021333-17.536A56.32 56.32 0 0 0 308.906667 85.333333h-42.496z" p-id="5062"></path><path d="M320 384h384a21.333333 21.333333 0 1 0 0-42.666667h-384a21.333333 21.333333 0 0 0 0 42.666667zM320 554.666667h384a21.333333 21.333333 0 1 0 0-42.666667h-384a21.333333 21.333333 0 1 0 0 42.666667zM320 725.333333h384a21.333333 21.333333 0 1 0 0-42.666666h-384a21.333333 21.333333 0 1 0 0 42.666666z" p-id="5063"></path></svg>
