<?xml version="1.0" standalone="no"?><!DOCTYPE svg PUBLIC "-//W3C//DTD SVG 1.1//EN" "http://www.w3.org/Graphics/SVG/1.1/DTD/svg11.dtd"><svg t="1598258473974" class="icon" viewBox="0 0 1024 1024" version="1.1" xmlns="http://www.w3.org/2000/svg" p-id="625" xmlns:xlink="http://www.w3.org/1999/xlink" width="200" height="200"><defs><style type="text/css"></style></defs><path d="M711.7 553.9c-111.7 0-202.8 90.6-202.8 202.8 0 111.7 90.6 202.8 202.8 202.8 111.7 0 202.8-90.6 202.8-202.8s-91.1-202.8-202.8-202.8z m98.5 262.6H676.7V663h47.1v106.5h86.9v47.1h-0.5z m-337.4-60.3c0-75.2 35.5-143.5 91.1-187-3.2 1.6-6.9 2.6-10.6 2.6H296.5c-12.7 0-23.3-10.6-23.3-23.3s10.6-23.3 23.3-23.3h256.3c12.7 0 23.3 10.6 23.3 23.3 0 6.4-2.6 11.7-6.4 15.9 37.1-27.5 82.6-43.4 131.9-43.4 61.4 0 126 19.1 167.4 58.3V101.1c0-20.7-16.4-37.1-37.1-37.1H163c-20.7 0-37.1 16.4-37.1 37.1v798.6c0 20.7 16.4 37.1 37.1 37.1h394c-53.5-41.9-84.2-107-84.2-180.6zM296.5 237.7h399.3c12.7 0 23.3 10.6 23.3 23.3 0 12.7-10.6 23.3-23.3 23.3H296.5c-12.7 0-23.3-10.6-23.3-23.3 0-12.7 10.6-23.3 23.3-23.3z m0 144h399.3c12.7 0 23.3 10.6 23.3 23.3s-10.6 23.3-23.3 23.3H296.5c-12.7 0-23.3-10.6-23.3-23.3s10.6-23.3 23.3-23.3z m273.2 182.8l-6.4 4.8c2.7-1.1 4.9-2.7 6.4-4.8z" p-id="626"></path></svg>